<svg height="512" viewBox="0 0 56 59" width="512" xmlns="http://www.w3.org/2000/svg"><g id="Page-1" fill="none" fill-rule="evenodd"><g id="047---Delete" fill-rule="nonzero"><path id="Shape" d="m52 12.89-.24 3.11-3.21 41.09c-.1867983 1.1608684-1.2268257 1.9885569-2.4 1.91h-36.3c-1.17317431.0785569-2.21320168-.7491316-2.4-1.91l-3.21-41.09-.24-3.11z" fill="#547580"/><g fill="#3f5c6c"><path id="Shape" d="m25 51c-.5522847 0-1-.4477153-1-1v-27c0-2.209139 1.790861-4 4-4s4 1.790861 4 4c0 .5522847-.4477153 1-1 1s-1-.4477153-1-1c0-1.1045695-.8954305-2-2-2s-2 .8954305-2 2v27c0 .5522847-.4477153 1-1 1z"/><path id="Shape" d="m13 51c-.5522847 0-1-.4477153-1-1v-27c0-2.209139 1.790861-4 4-4s4 1.790861 4 4c0 .5522847-.4477153 1-1 1s-1-.4477153-1-1c0-1.1045695-.8954305-2-2-2s-2 .8954305-2 2v27c0 .5522847-.4477153 1-1 1z"/><path id="Shape" d="m37 51c-.5522847 0-1-.4477153-1-1v-27c0-2.209139 1.790861-4 4-4s4 1.790861 4 4c0 .5522847-.4477153 1-1 1s-1-.4477153-1-1c0-1.1045695-.8954305-2-2-2s-2 .8954305-2 2v27c0 .5522847-.4477153 1-1 1z"/></g><path id="Shape" d="m41.001 7c-.3040334.00086637-.591795-.13725037-.7813-.375l-.998-1.2471c-1.7040924-2.14006308-4.2926535-3.384162-7.0283-3.3779h-8.3868c-2.7354098-.00645869-5.3237468 1.23770954-7.0273 3.3779l-.9993 1.2471c-.3507413.41075355-.9642746.46875767-1.3857798.13101315-.4215051-.33774451-.4986385-.94916746-.1742202-1.38101315l.9981-1.2471c2.0820596-2.61555298 5.2454439-4.13597375 8.5885-4.1279h8.3868c3.3434681-.00802985 6.5072921 1.51233677 8.59 4.1279l.9966 1.2471c.2401148.29990225.2871903.71084849.1211157 1.05728133-.1660745.34643284-.5159333.56709487-.9001157.56771867z" fill="#bdc3c7"/><rect id="Rectangle-path" fill="#95a5a5" height="8" rx="4" width="56" y="6"/></g></g></svg>