<svg height="512pt" viewBox="0 0 512 512" width="512pt" xmlns="http://www.w3.org/2000/svg"><path d="m370.757812 26.484375v459.03125c0 14.628906-11.855468 26.484375-26.480468 26.484375h-317.792969c-14.628906 0-26.484375-11.855469-26.484375-26.484375v-397.238281h70.621094c9.738281-.03125 17.625-7.917969 17.65625-17.65625v-70.621094h256c14.625 0 26.480468 11.855469 26.480468 26.484375zm0 0" fill="#b49aca"/><path d="m88.277344 0v70.621094c-.03125 9.738281-7.917969 17.625-17.65625 17.65625h-70.621094zm0 0" fill="#7d6599"/><path d="m485.515625 0h-17.652344c-14.628906 0-26.484375 11.855469-26.484375 26.484375v44.136719h-17.65625c-14.625 0-26.480468 11.855468-26.480468 26.480468v97.105469c0 4.875 3.953124 8.828125 8.828124 8.828125s8.828126-3.953125 8.828126-8.828125v-97.105469c0-4.875 3.949218-8.824218 8.824218-8.824218h17.65625v287.777344c0 25.714843 4.511719 51.230468 13.328125 75.386718l21.984375 60.558594 21.980469-60.558594c8.816406-24.15625 13.328125-49.671875 13.328125-75.386718v-349.570313c0-14.628906-11.855469-26.484375-26.484375-26.484375zm0 0" fill="#e64c3c"/><path d="m406.070312 203.035156c-4.875 0-8.828124-3.953125-8.828124-8.828125v-97.105469c0-14.625 11.855468-26.480468 26.480468-26.480468h26.484375c4.875 0 8.828125 3.953125 8.828125 8.828125s-3.953125 8.828125-8.828125 8.828125h-26.484375c-4.875 0-8.824218 3.949218-8.824218 8.824218v97.105469c0 4.875-3.953126 8.828125-8.828126 8.828125zm0 0" fill="#802d40"/><path d="m441.378906 70.621094h35.3125v300.136718h-35.3125zm0 0" fill="#f0c419"/><path d="m476.691406 70.621094h35.308594v300.136718h-35.308594zm0 0" fill="#f29c1f"/><path d="m512 370.757812v5.296876c0 25.714843-4.511719 51.230468-13.328125 75.386718l-21.980469 60.558594-21.984375-60.558594c-8.816406-24.15625-13.328125-49.671875-13.328125-75.386718v-5.296876zm0 0" fill="#95a5a5"/><path d="m512 370.757812v5.296876c0 25.714843-4.511719 51.230468-13.328125 75.386718l-21.980469 60.558594v-141.242188zm0 0" fill="#7f8c8d"/><g fill="#3d324c"><path d="m229.515625 79.449219h-79.445313c-4.875 0-8.828124-3.953125-8.828124-8.828125s3.953124-8.828125 8.828124-8.828125h79.445313c4.878906 0 8.828125 3.953125 8.828125 8.828125s-3.949219 8.828125-8.828125 8.828125zm0 0"/><path d="m158.898438 141.242188h-114.761719c-4.875 0-8.828125-3.953126-8.828125-8.828126s3.953125-8.828124 8.828125-8.828124h114.761719c4.875 0 8.824218 3.953124 8.824218 8.828124s-3.949218 8.828126-8.824218 8.828126zm0 0"/><path d="m326.621094 141.242188h-114.757813c-4.875 0-8.828125-3.953126-8.828125-8.828126s3.953125-8.828124 8.828125-8.828124h114.757813c4.875 0 8.828125 3.953124 8.828125 8.828124s-3.953125 8.828126-8.828125 8.828126zm0 0"/><path d="m203.035156 176.550781h-158.898437c-4.875 0-8.828125-3.953125-8.828125-8.828125s3.953125-8.824218 8.828125-8.824218h158.898437c4.875 0 8.828125 3.949218 8.828125 8.824218s-3.953125 8.828125-8.828125 8.828125zm0 0"/><path d="m326.621094 176.550781h-70.621094c-4.875 0-8.828125-3.953125-8.828125-8.828125s3.953125-8.824218 8.828125-8.824218h70.621094c4.875 0 8.828125 3.949218 8.828125 8.824218s-3.953125 8.828125-8.828125 8.828125zm0 0"/><path d="m114.757812 211.863281h-70.621093c-4.875 0-8.828125-3.953125-8.828125-8.828125s3.953125-8.828125 8.828125-8.828125h70.621093c4.875 0 8.828126 3.953125 8.828126 8.828125s-3.953126 8.828125-8.828126 8.828125zm0 0"/><path d="m326.621094 211.863281h-158.898438c-4.875 0-8.824218-3.953125-8.824218-8.828125s3.949218-8.828125 8.824218-8.828125h158.898438c4.875 0 8.828125 3.953125 8.828125 8.828125s-3.953125 8.828125-8.828125 8.828125zm0 0"/><path d="m176.550781 247.171875h-132.414062c-4.875 0-8.828125-3.953125-8.828125-8.828125s3.953125-8.828125 8.828125-8.828125h132.414062c4.875 0 8.828125 3.953125 8.828125 8.828125s-3.953125 8.828125-8.828125 8.828125zm0 0"/><path d="m326.621094 247.171875h-97.105469c-4.875 0-8.824219-3.953125-8.824219-8.828125s3.949219-8.828125 8.824219-8.828125h97.105469c4.875 0 8.828125 3.953125 8.828125 8.828125s-3.953125 8.828125-8.828125 8.828125zm0 0"/><path d="m97.101562 282.484375h-52.964843c-4.875 0-8.828125-3.953125-8.828125-8.828125s3.953125-8.828125 8.828125-8.828125h52.964843c4.878907 0 8.828126 3.953125 8.828126 8.828125s-3.949219 8.828125-8.828126 8.828125zm0 0"/><path d="m326.621094 282.484375h-176.550782c-4.875 0-8.828124-3.953125-8.828124-8.828125s3.953124-8.828125 8.828124-8.828125h176.550782c4.875 0 8.828125 3.953125 8.828125 8.828125s-3.953125 8.828125-8.828125 8.828125zm0 0"/></g><path d="m79.449219 326.621094h211.859375c4.878906 0 8.828125 3.953125 8.828125 8.828125v123.585937c0 4.875-3.949219 8.828125-8.828125 8.828125h-211.859375c-4.875 0-8.828125-3.953125-8.828125-8.828125v-123.585937c0-4.875 3.953125-8.828125 8.828125-8.828125zm0 0" fill="#7d6599"/><path d="m256 397.242188c0 39-31.617188 70.621093-70.621094 70.621093s-70.621094-31.621093-70.621094-70.621093c0-39.003907 31.617188-70.621094 70.621094-70.621094s70.621094 31.617187 70.621094 70.621094zm0 0" fill="#3d324c"/><path d="m167.722656 369.726562v55.03125c0 1.589844.855469 3.054688 2.238282 3.839844 1.382812.785156 3.082031.761719 4.445312-.054687l45.902344-27.515625c1.332031-.796875 2.148437-2.234375 2.148437-3.785156 0-1.554688-.816406-2.992188-2.148437-3.789063l-45.859375-27.515625c-1.363281-.839844-3.078125-.871094-4.476563-.085938-1.398437.789063-2.257812 2.269532-2.25 3.875zm0 0" fill="#d1d4d1"/></svg>