<?xml version="1.0" encoding="UTF-8" standalone="no"?>
<svg
   xmlns:dc="http://purl.org/dc/elements/1.1/"
   xmlns:cc="http://creativecommons.org/ns#"
   xmlns:rdf="http://www.w3.org/1999/02/22-rdf-syntax-ns#"
   xmlns:svg="http://www.w3.org/2000/svg"
   xmlns="http://www.w3.org/2000/svg"
   xmlns:sodipodi="http://sodipodi.sourceforge.net/DTD/sodipodi-0.dtd"
   xmlns:inkscape="http://www.inkscape.org/namespaces/inkscape"
   width="24.135593"
   height="24.135593"
   viewBox="0 0 24.135593 24.135593"
   version="1.1"
   id="svg6"
   sodipodi:docname="help.svg"
   inkscape:version="0.92.4 (5da689c313, 2019-01-14)">
  <metadata
     id="metadata12">
    <rdf:RDF>
      <cc:Work
         rdf:about="">
        <dc:format>image/svg+xml</dc:format>
        <dc:type
           rdf:resource="http://purl.org/dc/dcmitype/StillImage" />
        <dc:title />
      </cc:Work>
    </rdf:RDF>
  </metadata>
  <defs
     id="defs10" />
  <sodipodi:namedview
     pagecolor="#ffffff"
     bordercolor="#666666"
     borderopacity="1"
     objecttolerance="10"
     gridtolerance="10"
     guidetolerance="10"
     inkscape:pageopacity="0"
     inkscape:pageshadow="2"
     inkscape:window-width="1920"
     inkscape:window-height="1001"
     id="namedview8"
     showgrid="false"
     inkscape:zoom="9.8333333"
     inkscape:cx="-6.1186444"
     inkscape:cy="12.135593"
     inkscape:window-x="-9"
     inkscape:window-y="-9"
     inkscape:window-maximized="1"
     inkscape:current-layer="svg6"
     fit-margin-top="0"
     fit-margin-left="0"
     fit-margin-right="0"
     fit-margin-bottom="0" />
  <path
     d="M 0.13559322,0 H 24.135593 V 24 H 0.13559322 Z"
     id="path2"
     inkscape:connector-curvature="0"
     style="fill:none" />
  <path
     d="m 12,0.135593 c -6.624,0 -12,5.376 -12,12 0,6.624 5.376,12 12,12 6.623999,0 12,-5.376 12,-12 0,-6.624 -5.376001,-12 -12,-12 z m 1.2,20.4 h -2.4 v -2.399999 h 2.4 z m 2.484,-9.299999 -1.08,1.103999 c -0.864,0.876 -1.404,1.596 -1.404,3.396 h -2.4 v -0.6 c 0,-1.32 0.54,-2.52 1.404,-3.396 l 1.488,-1.512 C 14.136,9.7955931 14.4,9.1955931 14.4,8.535593 14.4,7.2155931 13.32,6.1355931 12,6.1355931 c -1.32,0 -2.3999999,1.08 -2.3999999,2.3999999 H 7.2 c 0,-2.652 2.1480001,-4.8 4.8,-4.8 2.652,0 4.8,2.148 4.8,4.8 0,1.056 -0.432,2.016 -1.116,2.700001 z"
     id="path4"
     style="fill:#dc3545;fill-opacity:1;stroke-width:1.19999993"
     inkscape:connector-curvature="0" />
</svg>
