<?xml version="1.0" encoding="UTF-8" standalone="no"?>
<!-- Created with Inkscape (http://www.inkscape.org/) -->

<svg
   xmlns:osb="http://www.openswatchbook.org/uri/2009/osb"
   xmlns:dc="http://purl.org/dc/elements/1.1/"
   xmlns:cc="http://creativecommons.org/ns#"
   xmlns:rdf="http://www.w3.org/1999/02/22-rdf-syntax-ns#"
   xmlns:svg="http://www.w3.org/2000/svg"
   xmlns="http://www.w3.org/2000/svg"
   xmlns:sodipodi="http://sodipodi.sourceforge.net/DTD/sodipodi-0.dtd"
   xmlns:inkscape="http://www.inkscape.org/namespaces/inkscape"
   width="1000"
   height="1000.0083"
   viewBox="0 0 264.58331 264.58555"
   version="1.1"
   id="svg8"
   inkscape:version="0.92.4 (5da689c313, 2019-01-14)"
   sodipodi:docname="model-vr3.svg">
  <title
     id="title29">ASL-Tools-Logo</title>
  <defs
     id="defs2">
    <linearGradient
       osb:paint="gradient"
       id="linearGradient1534">
      <stop
         id="stop1530"
         offset="0"
         style="stop-color:#91aaff;stop-opacity:1;" />
      <stop
         id="stop1532"
         offset="1"
         style="stop-color:#91aaff;stop-opacity:0;" />
    </linearGradient>
    <linearGradient
       id="linearGradient6025">
      <stop
         style="stop-color:#003cff;stop-opacity:1"
         offset="0"
         id="stop6023" />
    </linearGradient>
    <inkscape:perspective
       sodipodi:type="inkscape:persp3d"
       inkscape:vp_x="-12.294397 : 234.5608 : 1"
       inkscape:vp_y="0 : 1000.0001 : 0"
       inkscape:vp_z="209.99998 : 148.50001 : 1"
       inkscape:persp3d-origin="105 : 99.000004 : 1"
       id="perspective15" />
  </defs>
  <sodipodi:namedview
     id="base"
     pagecolor="#ffffff"
     bordercolor="#666666"
     borderopacity="1.0"
     inkscape:pageopacity="0.0"
     inkscape:pageshadow="2"
     inkscape:zoom="0.35"
     inkscape:cx="-229.1436"
     inkscape:cy="792.93911"
     inkscape:document-units="mm"
     inkscape:current-layer="layer1"
     showgrid="false"
     inkscape:snap-smooth-nodes="false"
     inkscape:window-width="1920"
     inkscape:window-height="1017"
     inkscape:window-x="-8"
     inkscape:window-y="-8"
     inkscape:window-maximized="1"
     units="px"
     fit-margin-top="0"
     fit-margin-left="0"
     fit-margin-right="0"
     fit-margin-bottom="0" />
  <metadata
     id="metadata5">
    <rdf:RDF>
      <cc:Work
         rdf:about="">
        <dc:format>image/svg+xml</dc:format>
        <dc:type
           rdf:resource="http://purl.org/dc/dcmitype/StillImage" />
        <dc:title>ASL-Tools-Logo</dc:title>
      </cc:Work>
    </rdf:RDF>
  </metadata>
  <g
     inkscape:label="Calque 1"
     inkscape:groupmode="layer"
     id="layer1"
     transform="translate(-40.483617,73.478033)">
    <g
       id="g841"
       inkscape:label="Gear20"
       transform="matrix(7.1274642,0,0,7.1274642,172.77528,58.81675)"
       style="fill:#003cff;fill-opacity:1;stroke:none">
      <path
         id="path839"
         style="fill:#003cff;fill-opacity:1;stroke:none;stroke-width:0.26458332"
         d="m 15.11062,-1.21651 1.42388,-0.11464 0.25747,0.00959 1.71801,0.49812 V 0.82344 L 16.79197,1.32156 16.5345,1.33115 15.11062,1.21651 14.74698,3.51247 16.1366,3.84345 16.3785,3.93213 17.85849,4.93676 17.34958,6.50303 15.56173,6.44588 15.3139,6.37544 13.99513,5.82641 12.9398,7.89762 l 1.21932,0.7442 0.20266,0.15909 1.09711,1.41281 -0.968,1.33235 -1.68269,-0.60683 -0.21393,-0.14358 -1.08457,-0.92968 -1.64372,1.64372 0.92968,1.08457 0.14358,0.21393 0.60683,1.68269 -1.33235,0.968 L 8.80091,14.36178 8.64182,14.15912 7.89762,12.9398 5.82641,13.99513 6.37544,15.3139 6.44588,15.56173 6.50303,17.34958 4.93676,17.85849 3.93213,16.3785 3.84345,16.1366 3.51247,14.74698 1.21651,15.11062 1.33115,16.5345 1.32156,16.79197 0.82344,18.50998 h -1.64688 l -0.49812,-1.71801 -0.00959,-0.25747 0.11464,-1.42388 -2.29596,-0.36364 -0.33098,1.38962 -0.08868,0.2419 -1.00463,1.47999 -1.56627,-0.50891 0.05715,-1.78785 0.07044,-0.24783 0.54903,-1.31877 -2.07121,-1.05533 -0.7442,1.21932 -0.15909,0.20266 -1.41281,1.09711 -1.33235,-0.968 0.60683,-1.68269 0.14358,-0.21393 0.92968,-1.08457 -1.64372,-1.64372 -1.08457,0.92968 -0.21393,0.14358 -1.68269,0.60683 -0.968,-1.33235 1.09711,-1.41281 0.20266,-0.15909 1.21932,-0.7442 -1.05533,-2.07121 -1.31877,0.54903 -0.24783,0.07044 -1.78785,0.05715 -0.50891,-1.56627 1.47999,-1.00463 0.2419,-0.08868 1.38962,-0.33098 -0.36364,-2.29596 -1.42388,0.11464 -0.25747,-0.00959 -1.71801,-0.49812 v -1.64688 l 1.71801,-0.49812 0.25747,-0.00959 1.42388,0.11464 0.36364,-2.29596 -1.38962,-0.33098 -0.2419,-0.08868 -1.47999,-1.00463 0.50891,-1.56627 1.78785,0.05715 0.24783,0.07044 1.31877,0.54903 1.05533,-2.07121 -1.21932,-0.7442 -0.20266,-0.15909 -1.09711,-1.41281 0.968,-1.33235 1.68269,0.60683 0.21393,0.14358 1.08457,0.92968 1.64372,-1.64372 -0.92968,-1.08457 -0.14358,-0.21393 -0.60683,-1.68269 1.33235,-0.968 1.41281,1.09711 0.15909,0.20266 0.7442,1.21932 2.07121,-1.05533 -0.54903,-1.31877 -0.07044,-0.24783 -0.05715,-1.78785 1.56627,-0.50891 1.00463,1.47999 0.08868,0.2419 0.33098,1.38962 2.29596,-0.36364 -0.11464,-1.42388 0.00959,-0.25747 0.49812,-1.71801 h 1.64688 l 0.49812,1.71801 0.00959,0.25747 -0.11464,1.42388 2.29596,0.36364 0.33098,-1.38962 0.08868,-0.2419 1.00463,-1.47999 1.56627,0.50891 -0.05715,1.78785 -0.07044,0.24783 -0.54903,1.31877 2.07121,1.05533 0.7442,-1.21932 0.15909,-0.20266 1.41281,-1.09711 1.33235,0.968 -0.60683,1.68269 -0.14358,0.21393 -0.92968,1.08457 1.64372,1.64372 1.08457,-0.92968 0.21393,-0.14358 1.68269,-0.60683 0.968,1.33235 -1.09711,1.41281 -0.20266,0.15909 -1.21932,0.7442 1.05533,2.07121 1.31877,-0.54903 0.24783,-0.07044 1.78785,-0.05715 0.50891,1.56627 -1.47999,1.00463 -0.2419,0.08868 -1.38962,0.33098 z"
         inkscape:connector-curvature="0" />
    </g>
    <flowRoot
       xml:space="preserve"
       id="flowRoot6062"
       style="font-style:normal;font-weight:normal;font-size:40px;line-height:1.25;font-family:sans-serif;letter-spacing:0px;word-spacing:0px;fill:#000000;fill-opacity:1;stroke:none"
       transform="matrix(0.26458333,0,0,0.26458333,42.723391,30.117716)"><flowRegion
         id="flowRegion6064"><rect
           id="rect6066"
           width="1286.9343"
           height="521.23871"
           x="531.34021"
           y="30.273968" /></flowRegion><flowPara
         id="flowPara6068" /></flowRoot>    <path
       style="fill:#fffdff;fill-opacity:1;fill-rule:evenodd;stroke:none;stroke-width:2.03785896;stroke-linecap:butt;stroke-linejoin:round;stroke-miterlimit:4;stroke-dasharray:none;stroke-dashoffset:0;stroke-opacity:1"
       d="M 169.04747,2.1959181 V 16.463319 c 0,0 -0.17233,8.444098 -5.51939,9.390798 -0.41157,-3.8202 -2.39444,-13.846199 -9.23857,-13.846199 -10.61617,0 -23.28059,22.473308 -28.03638,34.667808 -1.25441,3.269799 -6.39451,13.615298 -6.39451,31.958206 0,13.819804 1.80669,29.395288 11.05135,29.395288 5.11469,0 9.69743,-5.6002 18.73427,-11.424279 27.78202,-17.905109 19.95671,-27.637208 14.8543,-63.733315 3.28864,-3.003499 5.49371,-4.30091 8.27675,-4.30091 2.48288,0 4.9881,1.297411 8.27672,4.30091 -5.10238,36.096107 -12.92769,45.828206 14.8543,63.733315 9.03685,5.824079 13.61959,11.424279 18.73429,11.424279 9.24466,0 11.05135,-15.575484 11.05135,-29.395288 0,-18.342908 -5.14008,-28.688407 -6.39451,-31.958206 -4.75578,-12.1945 -17.42021,-34.667808 -28.03638,-34.667808 -6.84412,0 -8.82699,10.025999 -9.23857,13.846199 -5.34703,-0.947 -5.51937,-9.390798 -5.51937,-9.390798 V 2.1959181 l -3.72783,0.0061 z"
       id="path21"
       inkscape:connector-curvature="0"
       sodipodi:nodetypes="cccscssscccssscsccccc" />
  </g>
</svg>
