<?xml version="1.0" encoding="UTF-8" standalone="no"?>
<!-- Created with Inkscape (http://www.inkscape.org/) -->

<svg
   xmlns:osb="http://www.openswatchbook.org/uri/2009/osb"
   xmlns:dc="http://purl.org/dc/elements/1.1/"
   xmlns:cc="http://creativecommons.org/ns#"
   xmlns:rdf="http://www.w3.org/1999/02/22-rdf-syntax-ns#"
   xmlns:svg="http://www.w3.org/2000/svg"
   xmlns="http://www.w3.org/2000/svg"
   xmlns:sodipodi="http://sodipodi.sourceforge.net/DTD/sodipodi-0.dtd"
   xmlns:inkscape="http://www.inkscape.org/namespaces/inkscape"
   width="1000"
   height="1000"
   viewBox="0 0 264.58331 264.58336"
   version="1.1"
   id="svg8"
   inkscape:version="0.92.4 (5da689c313, 2019-01-14)"
   sodipodi:docname="script.svg">
  <title
     id="title29">ASL-Tools-Logo</title>
  <defs
     id="defs2">
    <linearGradient
       osb:paint="gradient"
       id="linearGradient1534">
      <stop
         id="stop1530"
         offset="0"
         style="stop-color:#91aaff;stop-opacity:1;" />
      <stop
         id="stop1532"
         offset="1"
         style="stop-color:#91aaff;stop-opacity:0;" />
    </linearGradient>
    <linearGradient
       id="linearGradient6025">
      <stop
         style="stop-color:#003cff;stop-opacity:1"
         offset="0"
         id="stop6023" />
    </linearGradient>
    <inkscape:perspective
       sodipodi:type="inkscape:persp3d"
       inkscape:vp_x="-12.294397 : 234.5608 : 1"
       inkscape:vp_y="0 : 1000.0001 : 0"
       inkscape:vp_z="209.99998 : 148.50001 : 1"
       inkscape:persp3d-origin="105 : 99.000006 : 1"
       id="perspective15" />
    <filter
       inkscape:label="In and Out"
       inkscape:menu="Shadows and Glows"
       inkscape:menu-tooltip="Inner colorized shadow, outer black shadow"
       style="color-interpolation-filters:sRGB"
       id="filter930">
      <feGaussianBlur
         result="result0"
         in="SourceAlpha"
         stdDeviation="4"
         id="feGaussianBlur924" />
      <feOffset
         dx="5"
         dy="5"
         result="result4"
         id="feOffset926" />
      <feComposite
         in="SourceGraphic"
         in2="result4"
         operator="xor"
         result="result3"
         id="feComposite928" />
    </filter>
    <filter
       style="color-interpolation-filters:sRGB"
       inkscape:label="Drop Shadow"
       id="filter1386">
      <feFlood
         flood-opacity="0.498039"
         flood-color="rgb(0,0,0)"
         result="flood"
         id="feFlood1376" />
      <feComposite
         in="flood"
         in2="SourceGraphic"
         operator="in"
         result="composite1"
         id="feComposite1378" />
      <feGaussianBlur
         in="composite1"
         stdDeviation="5"
         result="blur"
         id="feGaussianBlur1380" />
      <feOffset
         dx="2"
         dy="2"
         result="offset"
         id="feOffset1382" />
      <feComposite
         in="SourceGraphic"
         in2="offset"
         operator="over"
         result="composite2"
         id="feComposite1384" />
    </filter>
  </defs>
  <sodipodi:namedview
     id="base"
     pagecolor="#ffffff"
     bordercolor="#666666"
     borderopacity="1.0"
     inkscape:pageopacity="0.0"
     inkscape:pageshadow="2"
     inkscape:zoom="0.49497475"
     inkscape:cx="920.75727"
     inkscape:cy="477.13721"
     inkscape:document-units="mm"
     inkscape:current-layer="layer1"
     showgrid="false"
     inkscape:snap-smooth-nodes="false"
     inkscape:window-width="1920"
     inkscape:window-height="1017"
     inkscape:window-x="-8"
     inkscape:window-y="-8"
     inkscape:window-maximized="1"
     units="px"
     fit-margin-top="0"
     fit-margin-left="0"
     fit-margin-right="0"
     fit-margin-bottom="0" />
  <metadata
     id="metadata5">
    <rdf:RDF>
      <cc:Work
         rdf:about="">
        <dc:format>image/svg+xml</dc:format>
        <dc:type
           rdf:resource="http://purl.org/dc/dcmitype/StillImage" />
        <dc:title>ASL-Tools-Logo</dc:title>
      </cc:Work>
    </rdf:RDF>
  </metadata>
  <g
     inkscape:label="Calque 1"
     inkscape:groupmode="layer"
     id="layer1"
     transform="translate(-33.992716,73.65787)">
    <flowRoot
       xml:space="preserve"
       id="flowRoot6062"
       style="font-style:normal;font-weight:normal;font-size:40px;line-height:1.25;font-family:sans-serif;letter-spacing:0px;word-spacing:0px;fill:#000000;fill-opacity:1;stroke:none"
       transform="matrix(0.26458333,0,0,0.26458333,42.723391,30.117716)"><flowRegion
         id="flowRegion6064"><rect
           id="rect6066"
           width="1286.9343"
           height="521.23871"
           x="531.34021"
           y="30.273968" /></flowRegion><flowPara
         id="flowPara6068" /></flowRoot>    <path
       inkscape:connector-curvature="0"
       style="opacity:1;fill:#003cff;fill-opacity:1;fill-rule:evenodd;stroke:none;stroke-width:0.71745062;stroke-linecap:butt;stroke-linejoin:round;stroke-miterlimit:4;stroke-dasharray:none;stroke-dashoffset:0;stroke-opacity:1;paint-order:normal"
       d="M 73.2432,-14.616337 V 190.36035 c 0,0.31309 0.252016,0.56511 0.565104,0.56511 H 259.54661 c 0.31309,0 0.5651,-0.25202 0.5651,-0.56511 V -73.092766 c 0,-0.313088 -0.25201,-0.565104 -0.5651,-0.565104 H 136.82627 Z"
       id="path837" />
    <path
       style="opacity:1;fill:#0026a2;fill-opacity:1;fill-rule:evenodd;stroke:none;stroke-width:0.71643746;stroke-linecap:butt;stroke-linejoin:round;stroke-miterlimit:4;stroke-dasharray:none;stroke-dashoffset:0;stroke-opacity:1;paint-order:normal;filter:url(#filter1386)"
       d="m 103.8353,-73.284246 -63.493258,58.95816 H 103.271 c 0.31264,0 0.5643,-0.25166 0.5643,-0.564306 z"
       id="rect824"
       inkscape:connector-curvature="0"
       transform="matrix(1.0007091,0,0,1.0007091,32.895066,-0.30097496)" />
    <path
       style="fill:#ffffff;fill-opacity:1;fill-rule:evenodd;stroke:none;stroke-width:2.13996053;stroke-linecap:butt;stroke-linejoin:round;stroke-miterlimit:4;stroke-dasharray:none;stroke-dashoffset:0;stroke-opacity:1"
       d="M 162.36977,3.6224216 V 18.604735 c 0,0 -0.18094,8.867159 -5.79588,9.861262 -0.43221,-4.011623 -2.51443,-14.539976 -9.70146,-14.539976 -11.14805,0 -24.447,23.599271 -29.44108,36.404759 -1.31728,3.433663 -6.71489,14.297532 -6.71489,33.559363 0,14.512197 1.89721,30.868117 11.60506,30.868117 5.37095,0 10.18331,-5.88079 19.67289,-11.99669 29.17397,-18.80214 20.95658,-29.021845 15.59855,-66.92652 3.45338,-3.153981 5.76898,-4.516363 8.69142,-4.516363 2.60728,0 5.23805,1.362382 8.69142,4.516363 -5.35803,37.904675 -13.57543,48.12438 15.59856,66.92652 9.48959,6.1159 14.30194,11.99669 19.67291,11.99669 9.70783,0 11.60503,-16.35592 11.60503,-30.868117 0,-19.261831 -5.3976,-30.1257 -6.71488,-33.559363 -4.99406,-12.805488 -18.29303,-36.404759 -29.44107,-36.404759 -7.18705,0 -9.26926,10.528353 -9.70148,14.539976 -5.61494,-0.994103 -5.79587,-9.861262 -5.79587,-9.861262 V 3.6224216 l -3.91462,0.00641 z"
       id="path21"
       inkscape:connector-curvature="0"
       sodipodi:nodetypes="cccscssscccssscsccccc" />
    <path
       inkscape:connector-curvature="0"
       style="fill:#f02828;fill-opacity:1;stroke-width:7.05225611"
       d="m 280.01081,66.029924 c -2.75038,-2.750384 -7.19297,-2.750384 -9.94333,7e-6 l -12.90579,12.905779 26.44591,26.44591 12.9058,-12.905768 c 2.75038,-2.750377 2.75011,-7.193242 -2.5e-4,-9.943604 z m -30.39505,20.451712 -77.99791,77.997924 v 26.44566 l 26.4459,2.4e-4 77.99794,-77.9979 z"
       id="path1424" />
  </g>
</svg>
